<?xml version="1.0" encoding="UTF-8" standalone="no"?>
<!-- Created with Inkscape (http://www.inkscape.org/) -->

<svg
   width="724.6048"
   height="114.72821"
   viewBox="0 0 191.71834 30.355173"
   version="1.1"
   id="svg1"
   xmlns="http://www.w3.org/2000/svg"
   xmlns:svg="http://www.w3.org/2000/svg">
  <defs
     id="defs1" />
  <g
     id="layer1"
     transform="translate(-13.477406,-185.14588)">
    <g
       id="SvgjsG1015"
       featurekey="TZbA6h-0"
       transform="matrix(1.0779172,0,0,1.0779172,12.787539,179.06644)"
       fill="#111111"
       style="stroke-width:0.483022">
      <path
         d="m 9.78,15.36 3.06,0.86 c -0.38,2.3 -2.1,4.06 -5.62,4.06 -4.64,0 -6.58,-3.04 -6.58,-7 0,-4.26 2.3,-6.78 6.6,-6.78 3.44,0 5.44,1.6 5.44,3.96 0,0.12 -0.02,0.22 -0.02,0.34 l -3.3,0.74 v -0.28 c 0,-1.24 -0.54,-1.98 -2.2,-1.98 -2.3,0 -2.98,1.34 -2.98,3.98 0,2.92 0.9,4.24 2.96,4.24 1.3,0 2.62,-0.56 2.64,-2.14 z m 8.88,4.92 c -3.78,0 -4.92,-2.34 -4.92,-5.02 0,-2.62 1.08,-4.88 4.86,-4.88 3.86,0 4.88,2.34 4.88,4.92 0,2.74 -1.14,4.98 -4.82,4.98 z m -0.04,-2.32 c 1.36,0 1.62,-1.26 1.62,-2.62 0,-1.36 -0.26,-2.64 -1.64,-2.64 -1.36,0 -1.62,1.28 -1.62,2.6 0,1.34 0.26,2.66 1.64,2.66 z M 24.74,20 v -2.26 h 1.06 v -4.82 h -1.36 v -2.26 h 4.26 v 1.7 c 0.44,-1.06 1.22,-1.98 2.48,-1.98 1.4,0 1.84,0.7 1.84,0.7 l -1.26,2.96 c 0,0 -0.3,-0.66 -1.22,-0.66 -0.84,0 -1.32,0.78 -1.62,1.62 v 2.74 h 1.06 V 20 Z m 8.92,0 v -2.26 h 1.06 v -4.82 h -1.36 v -2.26 h 4.26 v 1.68 c 0.24,-0.64 1.02,-1.96 3.1,-1.96 1.38,0 2.98,0.56 2.98,3.48 v 3.88 h 1.06 V 20 h -5.04 v -2.26 h 0.86 v -3.08 c 0,-1.1 -0.26,-1.64 -0.9,-1.64 -1.12,0 -1.68,1.4 -1.84,1.96 v 2.76 H 38.7 V 20 Z m 12.52,0 V 7.9 H 44.92 V 5.64 h 4.38 v 5.84 c 0.06,-0.16 0.74,-1.1 2.44,-1.1 2.64,0 3.9,2.3 3.9,4.8 0,2.82 -1.5,5.1 -4.16,5.1 -1.44,0 -2.22,-0.64 -2.7,-1.52 L 48.7,20 Z m 4.62,-2.04 c 0.9,0 1.6,-0.86 1.6,-2.7 0,-1.42 -0.42,-2.56 -1.54,-2.56 -1.12,0 -1.58,1.14 -1.58,2.6 0,1.28 0.36,2.66 1.52,2.66 z M 56.9,20 v -2.26 h 1.06 V 12.92 H 56.6 v -2.26 h 4.26 v 1.7 c 0.44,-1.06 1.22,-1.98 2.48,-1.98 1.4,0 1.84,0.7 1.84,0.7 l -1.26,2.96 c 0,0 -0.3,-0.66 -1.22,-0.66 -0.84,0 -1.32,0.78 -1.62,1.62 v 2.74 h 1.06 V 20 Z m 15.14,-2.98 2.74,0.48 c -0.52,1.74 -1.76,2.78 -4.26,2.78 -3.12,0 -4.92,-1.62 -4.92,-4.84 0,-2.6 1.16,-5.06 4.78,-5.06 2.94,0 4.4,1.62 4.4,4.64 v 1.02 h -5.92 c 0.08,1.34 0.46,1.92 1.76,1.92 0.8,0 1.28,-0.22 1.42,-0.94 z M 68.9,14.14 h 2.6 v -0.02 c 0,-1.1 -0.42,-1.52 -1.24,-1.52 -0.76,0 -1.2,0.36 -1.36,1.54 z m 10.26,-0.24 -3.1,-0.58 c -0.02,-0.1 -0.02,-0.2 -0.02,-0.3 0,-1.48 1.44,-2.64 4.3,-2.64 2.86,0 3.92,1.18 3.92,3.76 v 2.2 c 0,0.86 0.02,1.36 0.66,1.36 0.12,0 0.26,-0.02 0.44,-0.06 L 84.8,20.1 c -0.34,0.06 -0.64,0.08 -0.9,0.08 -1.48,0 -2.12,-0.7 -2.34,-1.3 -0.48,0.68 -1.2,1.4 -2.66,1.4 -1.7,0 -3.16,-0.96 -3.16,-2.74 0,-2.16 2.14,-3.14 5.4,-3.16 V 14.1 c 0,-1.06 -0.26,-1.44 -1.02,-1.44 -0.64,0 -0.98,0.26 -0.98,0.96 0,0.08 0,0.18 0.02,0.28 z m 1.98,2.98 v -0.74 c -1.22,0.02 -2.26,0.24 -2.26,1.16 0,0.52 0.34,0.76 0.86,0.76 0.6,0 1.32,-0.32 1.4,-1.18 z M 93.1,20 92.98,18.74 c -0.46,0.74 -1.18,1.54 -2.74,1.54 -3.14,0 -4.14,-2.7 -4.14,-5 0,-2.92 1.68,-4.9 4.32,-4.9 1.06,0 1.66,0.34 2.1,0.94 V 7.9 H 91.26 V 5.64 h 4.38 v 12.1 H 96.7 V 20 Z m -2.22,-2.04 c 1.12,0 1.64,-0.84 1.64,-2.76 0,-1.36 -0.26,-2.5 -1.6,-2.5 -1.1,0 -1.58,0.78 -1.58,2.68 0,1.76 0.42,2.58 1.54,2.58 z m 10.56,-1.62 3.3,-0.68 c 0.02,1.4 1.1,1.84 2.2,1.84 1.04,0 1.64,-0.38 1.64,-1 0,-2.1 -6.78,-1.14 -6.78,-5.94 0,-2.64 2.04,-4.06 5.1,-4.06 3,0 4.92,1.4 4.92,3.42 v 0.16 l -3.3,0.68 c -0.02,-0.54 -0.14,-1.48 -1.7,-1.48 -1.08,0 -1.62,0.44 -1.62,1.04 0,2.18 6.78,1.04 6.78,5.82 0,2.4 -1.7,4.14 -5.08,4.14 -3.5,0 -5.46,-1.84 -5.46,-3.76 z m 11.84,7.28 1.48,-2 c 0.02,0.04 0.44,0.72 1.02,0.72 0.58,0 0.92,-0.32 1.1,-1.3 l 0.2,-1.12 -3.3,-7 h -0.92 v -2.26 h 4.9 v 2.26 h -0.78 l 1.54,3.76 1.3,-3.76 h -0.78 v -2.26 h 4.64 v 2.26 h -0.92 l -2.9,7.26 -0.26,1.44 c -0.3,1.64 -1.24,3.22 -3.7,3.22 -1.92,0 -2.62,-1.22 -2.62,-1.22 z m 11.06,-6.12 2.94,-0.46 c 0,0.04 -0.02,0.08 -0.02,0.12 0,0.44 0.38,0.8 1.28,0.8 0.58,0 1.04,-0.18 1.04,-0.56 0,-1.2 -5.04,-0.48 -5.04,-4 0,-1.82 1.34,-3.02 3.98,-3.02 2.22,0 4,0.84 4,2.34 0,0.12 -0.02,0.26 -0.04,0.38 l -3.12,0.54 c 0.02,-0.06 0.02,-0.14 0.02,-0.2 0,-0.38 -0.28,-0.74 -0.9,-0.74 -0.6,0 -0.78,0.3 -0.78,0.56 0,1.4 5.08,0.5 5.08,3.96 0,2.14 -1.92,3.06 -4.36,3.06 -2.22,0 -4.1,-0.8 -4.1,-2.52 0,-0.08 0,-0.16 0.02,-0.26 z m 10.44,-0.54 v -4.04 h -1.36 v -2.26 h 1.4 L 135,8.1 h 2.9 v 2.56 h 2.56 v 2.26 h -2.56 v 4.04 c 0,0.46 0.14,0.74 0.54,0.74 0.5,0 0.6,-0.56 0.64,-1.12 l 2.28,0.8 c -0.4,1.58 -1.02,2.82 -3.3,2.82 -2.48,0 -3.28,-1.58 -3.28,-3.24 z m 13.54,0.06 2.74,0.48 c -0.52,1.74 -1.76,2.78 -4.26,2.78 -3.12,0 -4.92,-1.62 -4.92,-4.84 0,-2.6 1.16,-5.06 4.78,-5.06 2.94,0 4.4,1.62 4.4,4.64 v 1.02 h -5.92 c 0.08,1.34 0.46,1.92 1.76,1.92 0.8,0 1.28,-0.22 1.42,-0.94 z m -3.14,-2.88 h 2.6 v -0.02 c 0,-1.1 -0.42,-1.52 -1.24,-1.52 -0.76,0 -1.2,0.36 -1.36,1.54 z m 7.14,5.86 v -2.26 h 1.06 v -4.82 h -1.36 v -2.26 h 4.26 v 1.68 c 0.26,-0.64 1.04,-1.96 3.06,-1.96 1.2,0 2.34,0.5 2.74,2.02 0.22,-0.54 0.98,-2.02 3.14,-2.02 1.38,0 2.98,0.56 2.98,3.48 v 3.88 h 1.06 V 20 h -5.04 v -2.26 h 0.86 v -3.08 c 0,-1.1 -0.26,-1.64 -0.9,-1.64 -1.08,0 -1.64,1.3 -1.82,1.86 v 2.86 h 0.86 V 20 h -4.84 v -2.26 h 0.86 v -3.08 c 0,-1.08 -0.26,-1.64 -0.9,-1.64 -1.12,0 -1.68,1.38 -1.84,1.92 v 2.8 h 0.86 V 20 Z m 17.74,-2.5 2.94,-0.46 c 0,0.04 -0.02,0.08 -0.02,0.12 0,0.44 0.38,0.8 1.28,0.8 0.58,0 1.04,-0.18 1.04,-0.56 0,-1.2 -5.04,-0.48 -5.04,-4 0,-1.82 1.34,-3.02 3.98,-3.02 2.22,0 4,0.84 4,2.34 0,0.12 -0.02,0.26 -0.04,0.38 l -3.12,0.54 c 0.02,-0.06 0.02,-0.14 0.02,-0.2 0,-0.38 -0.28,-0.74 -0.9,-0.74 -0.6,0 -0.78,0.3 -0.78,0.56 0,1.4 5.08,0.5 5.08,3.96 0,2.14 -1.92,3.06 -4.36,3.06 -2.22,0 -4.1,-0.8 -4.1,-2.52 0,-0.08 0,-0.16 0.02,-0.26 z"
         id="path3"
         style="stroke-width:0.483022" />
    </g>
    <g
       id="SvgjsG1016"
       featurekey="hKLqjk-0"
       transform="matrix(0.25508877,0,0,0.25508877,32.338037,210.3214)"
       fill="#111111"
       style="stroke-width:0.483022">
      <path
         d="m 5.64,20.3 c -0.61334,0 -1.1867,-0.11668 -1.72,-0.35002 -0.5333,-0.23334 -1,-0.55 -1.4,-0.95 -0.4,-0.4 -0.71666,-0.86666 -0.95,-1.4 -0.23334,-0.53334 -0.35,-1.1067 -0.35,-1.72 0,-0.25334 0.08666,-0.46668 0.26,-0.64002 0.17334,-0.17334 0.38668,-0.26 0.64002,-0.26 0.24,0 0.44666,0.08666 0.62,0.26 0.17334,0.17334 0.26,0.38668 0.26,0.64002 0,0.36 0.07,0.7 0.21,1.02 0.14,0.32 0.33,0.6 0.57,0.84 0.24,0.24 0.52,0.43 0.84,0.57 0.32,0.14 0.66,0.21 1.02,0.21 0.36,0 0.70334,-0.07 1.03,-0.21 0.32666,-0.14 0.61,-0.33 0.85,-0.57 0.24,-0.24 0.43,-0.52 0.57,-0.84 0.14,-0.32 0.21,-0.66 0.21,-1.02 0,-0.44 -0.08666,-0.80334 -0.26,-1.09 -0.17334,-0.28666 -0.41334,-0.53666 -0.72,-0.75 C 7.17336,13.93332 7.0067,13.83666 6.82004,13.75 c -0.18666,-0.08666 -0.38,-0.17666 -0.58,-0.27 -0.2,-0.08 -0.40666,-0.16 -0.62,-0.24 C 5.4067,13.16 5.1867,13.08 4.96004,13 c -0.44,-0.16 -0.88334,-0.34 -1.33,-0.54 -0.44666,-0.2 -0.84666,-0.45 -1.2,-0.75 -0.35334,-0.3 -0.64334,-0.67334 -0.87,-1.12 -0.22666,-0.44666 -0.34,-0.99666 -0.34,-1.65 0,-0.61334 0.11666,-1.1867 0.35,-1.72 0.23334,-0.5333 0.55,-1 0.95,-1.4 0.4,-0.4 0.86666,-0.71666 1.4,-0.95 0.53334,-0.23334 1.1067,-0.35 1.72,-0.35 0.6133,0 1.19,0.11666 1.73,0.35 0.54,0.23334 1.01,0.55 1.41,0.95 0.4,0.4 0.71666,0.86666 0.95,1.4 0.23334,0.53334 0.35,1.1067 0.35,1.72 0,0.24 -0.08666,0.44666 -0.26,0.62 -0.17334,0.17334 -0.38668,0.26 -0.64002,0.26 -0.24,0 -0.44666,-0.08666 -0.62,-0.26 -0.17334,-0.17334 -0.26,-0.38 -0.26,-0.62 0,-0.36 -0.07,-0.70334 -0.21,-1.03 -0.14,-0.32666 -0.33,-0.61 -0.57,-0.85 -0.24,-0.24 -0.52334,-0.43 -0.85,-0.57 -0.32666,-0.14 -0.67,-0.21 -1.03,-0.21 -0.36,0 -0.7,0.07 -1.02,0.21 -0.32,0.14 -0.6,0.33 -0.84,0.57 -0.24,0.24 -0.43,0.52334 -0.57,0.85 -0.14,0.32666 -0.21,0.67 -0.21,1.03 0,0.4 0.08334,0.73334 0.25,1 0.16666,0.26666 0.40332,0.5 0.70998,0.7 0.32,0.2 0.68,0.38 1.08,0.54 l 0.64,0.24 0.66,0.24 c 0.44,0.16 0.88334,0.34334 1.33,0.55 0.44666,0.20666 0.84666,0.46666 1.2,0.78 0.35334,0.31334 0.64334,0.70334 0.87,1.17 0.22666,0.46666 0.34,1.04 0.34,1.72 0,0.61334 -0.11666,1.1867 -0.35,1.72 -0.23334,0.5333 -0.55,1 -0.95,1.4 -0.4,0.4 -0.87,0.71666 -1.41,0.95 -0.54,0.23334 -1.1167,0.35 -1.73,0.35 z m 33.7,0 c -1.0933,0 -2.12,-0.20666 -3.08,-0.62 -0.96,-0.41334 -1.7967,-0.97668 -2.51,-1.69 -0.7133,-0.71332 -1.2767,-1.55 -1.69,-2.51 -0.4133,-0.96 -0.62,-1.9867 -0.62,-3.08 0,-1.08 0.20666,-2.1 0.62,-3.06 0.41334,-0.96 0.97668,-1.7967 1.69,-2.51 0.71332,-0.7133 1.55,-1.2767 2.51,-1.69 0.96,-0.4133 1.9867,-0.62 3.08,-0.62 1.08,0 2.1,0.20666 3.06,0.62 0.96,0.41334 1.7967,0.97668 2.51,1.69 0.7133,0.71332 1.2767,1.55 1.69,2.51 0.4133,0.96 0.62,1.98 0.62,3.06 0,1.0933 -0.20666,2.12 -0.62,3.08 -0.41334,0.96 -0.97668,1.7967 -1.69,2.51 -0.71332,0.7133 -1.55,1.2767 -2.51,1.69 -0.96,0.4133 -1.98,0.62 -3.06,0.62 z m 0,-14.02 c -0.84,0 -1.6333,0.16 -2.38,0.48 -0.7467,0.32 -1.4,0.75666 -1.96,1.31 -0.56,0.55334 -1,1.2033 -1.32,1.95 -0.32,0.7467 -0.48,1.54 -0.48,2.38 0,0.84 0.16,1.6333 0.48,2.38 0.32,0.7467 0.76,1.4 1.32,1.96 0.56,0.56 1.2133,1 1.96,1.32 0.7467,0.32 1.54,0.48 2.38,0.48 0.84,0 1.6333,-0.16 2.38,-0.48 0.7467,-0.32 1.3967,-0.76 1.95,-1.32 0.5533,-0.56 0.99,-1.2133 1.31,-1.96 0.32,-0.7467 0.48,-1.54 0.48,-2.38 0,-0.84 -0.16,-1.6333 -0.48,-2.38 C 44.66,9.2733 44.22334,8.6233 43.67,8.07 43.11666,7.5167 42.4667,7.08 41.72,6.76 40.9733,6.44 40.18,6.28 39.34,6.28 Z M 75.12,20.3 c -0.84,0 -1.6266,-0.16004 -2.36,-0.48004 -0.7334,-0.32 -1.3767,-0.75334 -1.93,-1.3 -0.5533,-0.54666 -0.99,-1.19 -1.31,-1.93 -0.32,-0.74 -0.48,-1.53 -0.48,-2.37 v -8.82 c 0,-0.24 0.08666,-0.44666 0.26,-0.62 0.17334,-0.17334 0.38668,-0.26 0.64002,-0.26 0.24,0 0.44666,0.08666 0.62,0.26 0.17334,0.17334 0.26,0.38 0.26,0.62 v 8.82 c 0,0.6 0.11334,1.16 0.34,1.68 0.22666,0.52 0.53332,0.97334 0.91998,1.36 0.38666,0.38666 0.84332,0.69332 1.37,0.91998 0.52668,0.22666 1.0833,0.34 1.67,0.34 0.6,0 1.16,-0.11334 1.68,-0.34 0.52,-0.22666 0.97666,-0.53332 1.37,-0.91998 0.39334,-0.38666 0.70334,-0.84332 0.93,-1.37 0.22666,-0.52668 0.34,-1.0833 0.34,-1.67 v -8.82 c 0,-0.24 0.08666,-0.44666 0.26,-0.62 0.17334,-0.17334 0.38,-0.26 0.62,-0.26 0.25334,0 0.46668,0.08666 0.64002,0.26 0.17334,0.17334 0.26,0.38 0.26,0.62 v 8.82 c 0,0.84 -0.16,1.63 -0.48,2.37 -0.32,0.74 -0.75666,1.3833 -1.31,1.93 -0.55334,0.5467 -1.2,0.98 -1.94,1.3 -0.74,0.32 -1.53,0.48 -2.37,0.48 z M 111.06,6.28 h -3.24 v 13.14 c 0,0.24 -0.0867,0.44666 -0.26,0.62 -0.17334,0.17334 -0.38,0.26 -0.62,0.26 -0.25334,0 -0.46668,-0.08666 -0.64002,-0.26 -0.17334,-0.17334 -0.26,-0.38 -0.26,-0.62 V 6.28 h -3.24 c -0.24,0 -0.44666,-0.08334 -0.62,-0.25 -0.17334,-0.16666 -0.26,-0.37666 -0.26,-0.63 0,-0.24 0.0867,-0.44666 0.26,-0.62 0.17334,-0.17334 0.38,-0.26 0.62,-0.26 h 8.26 c 0.24,0 0.44666,0.08666 0.62,0.26 0.17334,0.17334 0.26,0.38 0.26,0.62 0,0.25334 -0.0867,0.46334 -0.26,0.63 -0.17334,0.16666 -0.38,0.25 -0.62,0.25 z m 32.1,14.02 c -0.24,0 -0.44666,-0.08666 -0.62,-0.26 -0.17334,-0.17334 -0.26,-0.38 -0.26,-0.62 v -6.78 h -7.86 v 6.78 c 0,0.24 -0.0867,0.44666 -0.26,0.62 -0.17334,0.17334 -0.38,0.26 -0.62,0.26 -0.25334,0 -0.46668,-0.08666 -0.64002,-0.26 -0.17334,-0.17334 -0.26,-0.38 -0.26,-0.62 V 5.4 c 0,-0.24 0.0867,-0.44666 0.26,-0.62 0.17334,-0.17334 0.38668,-0.26 0.64002,-0.26 0.24,0 0.44666,0.08666 0.62,0.26 0.17334,0.17334 0.26,0.38 0.26,0.62 v 5.46 h 7.86 V 5.4 c 0,-0.24 0.0867,-0.44666 0.26,-0.62 0.17334,-0.17334 0.38,-0.26 0.62,-0.26 0.25334,0 0.46668,0.08666 0.64002,0.26 0.17334,0.17334 0.26,0.38 0.26,0.62 v 14.02 c 0,0.24 -0.0867,0.44666 -0.26,0.62 -0.17334,0.17334 -0.38668,0.26 -0.64002,0.26 z m 53.06,0 c -0.61334,0 -1.1867,-0.11668 -1.72,-0.35002 -0.5333,-0.23334 -1,-0.55 -1.4,-0.95 -0.4,-0.4 -0.71666,-0.86666 -0.95,-1.4 -0.23334,-0.53334 -0.35,-1.1067 -0.35,-1.72 0,-0.25334 0.0867,-0.46668 0.26,-0.64002 0.17334,-0.17334 0.38668,-0.26 0.64002,-0.26 0.24,0 0.44666,0.08666 0.62,0.26 0.17334,0.17334 0.26,0.38668 0.26,0.64002 0,0.36 0.07,0.7 0.21,1.02 0.14,0.32 0.33,0.6 0.57,0.84 0.24,0.24 0.52,0.43 0.84,0.57 0.32,0.14 0.66,0.21 1.02,0.21 0.36,0 0.70334,-0.07 1.03,-0.21 0.32666,-0.14 0.61,-0.33 0.85,-0.57 0.24,-0.24 0.43,-0.52 0.57,-0.84 0.14,-0.32 0.21,-0.66 0.21,-1.02 0,-0.44 -0.0867,-0.80334 -0.26,-1.09 -0.17334,-0.28666 -0.41334,-0.53666 -0.72,-0.75 -0.14666,-0.10666 -0.31332,-0.20332 -0.49998,-0.28998 -0.18666,-0.08666 -0.38,-0.17666 -0.58,-0.27 -0.2,-0.08 -0.40666,-0.16 -0.62,-0.24 -0.21334,-0.08 -0.43334,-0.16 -0.66,-0.24 -0.44,-0.16 -0.88334,-0.34 -1.33,-0.54 -0.44666,-0.2 -0.84666,-0.45 -1.2,-0.75 -0.35334,-0.3 -0.64334,-0.67334 -0.87,-1.12 -0.22666,-0.44666 -0.34,-0.99666 -0.34,-1.65 0,-0.61334 0.11666,-1.1867 0.35,-1.72 0.23334,-0.5333 0.55,-1 0.95,-1.4 0.4,-0.4 0.86666,-0.71666 1.4,-0.95 0.53334,-0.23334 1.1067,-0.35 1.72,-0.35 0.6133,0 1.19,0.11666 1.73,0.35 0.54,0.23334 1.01,0.55 1.41,0.95 0.4,0.4 0.71666,0.86666 0.95,1.4 0.23334,0.53334 0.35,1.1067 0.35,1.72 0,0.24 -0.0867,0.44666 -0.26,0.62 -0.17334,0.17334 -0.38668,0.26 -0.64002,0.26 -0.24,0 -0.44666,-0.08666 -0.62,-0.26 -0.17334,-0.17334 -0.26,-0.38 -0.26,-0.62 0,-0.36 -0.07,-0.70334 -0.21,-1.03 -0.14,-0.32666 -0.33,-0.61 -0.57,-0.85 -0.24,-0.24 -0.52334,-0.43 -0.85,-0.57 -0.32666,-0.14 -0.67,-0.21 -1.03,-0.21 -0.36,0 -0.7,0.07 -1.02,0.21 -0.32,0.14 -0.6,0.33 -0.84,0.57 -0.24,0.24 -0.43,0.52334 -0.57,0.85 -0.14,0.32666 -0.21,0.67 -0.21,1.03 0,0.4 0.0833,0.73334 0.25,1 0.16666,0.26666 0.40332,0.5 0.70998,0.7 0.32,0.2 0.68,0.38 1.08,0.54 l 0.64,0.24 0.66,0.24 c 0.44,0.16 0.88334,0.34334 1.33,0.55 0.44666,0.20666 0.84666,0.46666 1.2,0.78 0.35334,0.31334 0.64334,0.70334 0.87,1.17 0.22666,0.46666 0.34,1.04 0.34,1.72 0,0.61334 -0.11666,1.1867 -0.35,1.72 -0.23334,0.5333 -0.55,1 -0.95,1.4 -0.4,0.4 -0.87,0.71666 -1.41,0.95 -0.54,0.23334 -1.1167,0.35 -1.73,0.35 z M 230.06,6.28 h -3.24 v 13.14 c 0,0.24 -0.0867,0.44666 -0.26,0.62 -0.17334,0.17334 -0.38,0.26 -0.62,0.26 -0.25334,0 -0.46668,-0.08666 -0.64002,-0.26 -0.17334,-0.17334 -0.26,-0.38 -0.26,-0.62 V 6.28 h -3.24 c -0.24,0 -0.44666,-0.08334 -0.62,-0.25 -0.17334,-0.16666 -0.26,-0.37666 -0.26,-0.63 0,-0.24 0.0867,-0.44666 0.26,-0.62 0.17334,-0.17334 0.38,-0.26 0.62,-0.26 h 8.26 c 0.24,0 0.44666,0.08666 0.62,0.26 0.17334,0.17334 0.26,0.38 0.26,0.62 0,0.25334 -0.0867,0.46334 -0.26,0.63 -0.17334,0.16666 -0.38,0.25 -0.62,0.25 z m 31,-0.44 -4.54,8.12 v 5.46 c 0,0.24 -0.0867,0.44666 -0.26,0.62 -0.17334,0.17334 -0.38,0.26 -0.62,0.26 -0.24,0 -0.44666,-0.08666 -0.62,-0.26 -0.17334,-0.17334 -0.26,-0.38 -0.26,-0.62 V 13.96 L 250.22,5.84 C 250.14,5.70666 250.1,5.56 250.1,5.4 c 0,-0.24 0.0867,-0.44666 0.26,-0.62 0.17334,-0.17334 0.38,-0.26 0.62,-0.26 0.16,0 0.31,0.04 0.45,0.12 0.14,0.08 0.25,0.18666 0.33,0.32 l 3.88,6.94 3.88,-6.94 c 0.08,-0.13334 0.19,-0.24 0.33,-0.32 0.14,-0.08 0.29,-0.12 0.45,-0.12 0.24,0 0.44666,0.08666 0.62,0.26 0.17334,0.17334 0.26,0.38 0.26,0.62 0,0.16 -0.04,0.30666 -0.12,0.44 z M 288.1,20.3 h -5.34 c -0.24,0 -0.44666,-0.08666 -0.62,-0.26 -0.17334,-0.17334 -0.26,-0.38 -0.26,-0.62 V 5.4 c 0,-0.25334 0.0867,-0.46334 0.26,-0.63 0.17334,-0.16666 0.38,-0.25 0.62,-0.25 0.25334,0 0.46334,0.08334 0.63,0.25 0.16666,0.16666 0.25,0.37666 0.25,0.63 v 13.14 h 4.46 c 0.25334,0 0.46668,0.08666 0.64002,0.26 0.17334,0.17334 0.26,0.38 0.26,0.62 0,0.24 -0.0867,0.44666 -0.26,0.62 -0.17334,0.17334 -0.38668,0.26 -0.64002,0.26 z m 29.16,0 -6.88,-2e-5 c -0.25334,0 -0.46668,-0.08666 -0.64002,-0.26 -0.17334,-0.17334 -0.26,-0.38 -0.26,-0.62 v -0.04 -0.04 -13.9399995 c 0,-0.24 0.0867,-0.44666 0.26,-0.62 0.17334,-0.17334 0.38668,-0.26 0.64002,-0.26 h 6.88 c 0.25334,0 0.46668,0.08666 0.64002,0.26 0.17334,0.17334 0.26,0.38 0.26,0.62 0,0.25334 -0.0867,0.46334 -0.26,0.63 -0.17334,0.16666 -0.38668,0.25 -0.64002,0.25 h -6 V 11.37998 h 5.06 c 0.24,0 0.44666,0.08334 0.62,0.25 0.17334,0.16666 0.26,0.37666 0.26,0.63 0,0.24 -0.0867,0.44666 -0.26,0.62 -0.17334,0.17334 -0.38,0.26 -0.62,0.26 h -5.06 v 5.38 h 6 c 0.25334,0 0.46668,0.08666 0.64002,0.26 0.17334,0.17334 0.26,0.38668 0.26,0.64002 0,0.24 -0.0867,0.44666 -0.26,0.62 -0.17334,0.17334 -0.38668,0.26 -0.64002,0.26 z m 51.9,0 c -0.61334,0 -1.1867,-0.11668 -1.72,-0.35002 -0.5333,-0.23334 -1,-0.55 -1.4,-0.95 -0.4,-0.4 -0.71666,-0.86666 -0.95,-1.4 -0.23334,-0.53334 -0.35,-1.1067 -0.35,-1.72 0,-0.25334 0.0867,-0.46668 0.26,-0.64002 0.17334,-0.17334 0.38668,-0.26 0.64002,-0.26 0.24,0 0.44666,0.08666 0.62,0.26 0.17334,0.17334 0.26,0.38668 0.26,0.64002 0,0.36 0.07,0.7 0.21,1.02 0.14,0.32 0.33,0.6 0.57,0.84 0.24,0.24 0.52,0.43 0.84,0.57 0.32,0.14 0.66,0.21 1.02,0.21 0.36,0 0.70334,-0.07 1.03,-0.21 0.32666,-0.14 0.61,-0.33 0.85,-0.57 0.24,-0.24 0.43,-0.52 0.57,-0.84 0.14,-0.32 0.21,-0.66 0.21,-1.02 0,-0.44 -0.0867,-0.80334 -0.26,-1.09 -0.17334,-0.28666 -0.41334,-0.53666 -0.72,-0.75 -0.14666,-0.10666 -0.31332,-0.20332 -0.49998,-0.28998 -0.18666,-0.08666 -0.38,-0.17666 -0.58,-0.27 -0.2,-0.08 -0.40666,-0.16 -0.62,-0.24 -0.21334,-0.08 -0.43334,-0.16 -0.66,-0.24 -0.44,-0.16 -0.88334,-0.34 -1.33,-0.54 -0.44666,-0.2 -0.84666,-0.45 -1.2,-0.75 -0.35334,-0.3 -0.64334,-0.67334 -0.87,-1.12 -0.22666,-0.44666 -0.34,-0.99666 -0.34,-1.65 0,-0.61334 0.11666,-1.1867 0.35,-1.72 0.23334,-0.5333 0.55,-1 0.95,-1.4 0.4,-0.4 0.86666,-0.71666 1.4,-0.95 0.53334,-0.23334 1.1067,-0.35 1.72,-0.35 0.6133,0 1.19,0.11666 1.73,0.35 0.54,0.23334 1.01,0.55 1.41,0.95 0.4,0.4 0.71666,0.86666 0.95,1.4 0.23334,0.53334 0.35,1.1067 0.35,1.72 0,0.24 -0.0867,0.44666 -0.26,0.62 -0.17334,0.17334 -0.38668,0.26 -0.64002,0.26 -0.24,0 -0.44666,-0.08666 -0.62,-0.26 -0.17334,-0.17334 -0.26,-0.38 -0.26,-0.62 0,-0.36 -0.07,-0.70334 -0.21,-1.03 -0.14,-0.32666 -0.33,-0.61 -0.57,-0.85 -0.24,-0.24 -0.52334,-0.43 -0.85,-0.57 -0.32666,-0.14 -0.67,-0.21 -1.03,-0.21 -0.36,0 -0.7,0.07 -1.02,0.21 -0.32,0.14 -0.6,0.33 -0.84,0.57 -0.24,0.24 -0.43,0.52334 -0.57,0.85 -0.14,0.32666 -0.21,0.67 -0.21,1.03 0,0.4 0.0833,0.73334 0.25,1 0.16666,0.26666 0.40332,0.5 0.70998,0.7 0.32,0.2 0.68,0.38 1.08,0.54 l 0.64,0.24 0.66,0.24 c 0.44,0.16 0.88334,0.34334 1.33,0.55 0.44666,0.20666 0.84666,0.46666 1.2,0.78 0.35334,0.31334 0.64334,0.70334 0.87,1.17 0.22666,0.46666 0.34,1.04 0.34,1.72 0,0.61334 -0.11666,1.1867 -0.35,1.72 -0.23334,0.5333 -0.55,1 -0.95,1.4 -0.4,0.4 -0.87,0.71666 -1.41,0.95 -0.54,0.23334 -1.1167,0.35 -1.73,0.35 z m 33.7,0 c -1.0933,0 -2.12,-0.20666 -3.08,-0.62 -0.96,-0.41334 -1.7967,-0.97668 -2.51,-1.69 -0.7133,-0.71332 -1.2767,-1.55 -1.69,-2.51 -0.4133,-0.96 -0.62,-1.9867 -0.62,-3.08 0,-1.08 0.20666,-2.1 0.62,-3.06 0.41334,-0.96 0.97668,-1.7967 1.69,-2.51 0.71332,-0.7133 1.55,-1.2767 2.51,-1.69 0.96,-0.4133 1.9867,-0.62 3.08,-0.62 1.08,0 2.1,0.20666 3.06,0.62 0.96,0.41334 1.7967,0.97668 2.51,1.69 0.7133,0.71332 1.2767,1.55 1.69,2.51 0.4133,0.96 0.62,1.98 0.62,3.06 0,1.0933 -0.20666,2.12 -0.62,3.08 -0.41334,0.96 -0.97668,1.7967 -1.69,2.51 -0.71332,0.7133 -1.55,1.2767 -2.51,1.69 -0.96,0.4133 -1.98,0.62 -3.06,0.62 z m 0,-14.02 c -0.84,0 -1.6333,0.16 -2.38,0.48 -0.7467,0.32 -1.4,0.75666 -1.96,1.31 -0.56,0.55334 -1,1.2033 -1.32,1.95 -0.32,0.7467 -0.48,1.54 -0.48,2.38 0,0.84 0.16,1.6333 0.48,2.38 0.32,0.7467 0.76,1.4 1.32,1.96 0.56,0.56 1.2133,1 1.96,1.32 0.7467,0.32 1.54,0.48 2.38,0.48 0.84,0 1.6333,-0.16 2.38,-0.48 0.7467,-0.32 1.3967,-0.76 1.95,-1.32 0.5533,-0.56 0.99,-1.2133 1.31,-1.96 0.32,-0.7467 0.48,-1.54 0.48,-2.38 0,-0.84 -0.16,-1.6333 -0.48,-2.38 -0.32,-0.7467 -0.75666,-1.3967 -1.31,-1.95 -0.55334,-0.5533 -1.2033,-0.99 -1.95,-1.31 -0.7467,-0.32 -1.54,-0.48 -2.38,-0.48 z m 37.48,0 h -6 v 5.18 h 5.06 c 0.24,0 0.44666,0.08666 0.62,0.26 0.17334,0.17334 0.26,0.38 0.26,0.62 0,0.25334 -0.0867,0.46334 -0.26,0.63 -0.17334,0.16666 -0.38,0.25 -0.62,0.25 h -5.06 v 6.2 c 0,0.24 -0.0867,0.44666 -0.26,0.62 -0.17334,0.17334 -0.38,0.26 -0.62,0.26 -0.25334,0 -0.46668,-0.08666 -0.64002,-0.26 -0.17334,-0.17334 -0.26,-0.38 -0.26,-0.62 V 5.4 c 0,-0.24 0.0867,-0.44666 0.26,-0.62 0.17334,-0.17334 0.38668,-0.26 0.64002,-0.26 h 6.88 c 0.25334,0 0.46668,0.08666 0.64002,0.26 0.17334,0.17334 0.26,0.38 0.26,0.62 0,0.25334 -0.0867,0.46334 -0.26,0.63 -0.17334,0.16666 -0.38668,0.25 -0.64002,0.25 z m 28.98,0 h -3.24 v 13.14 c 0,0.24 -0.0867,0.44666 -0.26,0.62 -0.17334,0.17334 -0.38,0.26 -0.62,0.26 -0.25334,0 -0.46668,-0.08666 -0.64002,-0.26 -0.17334,-0.17334 -0.26,-0.38 -0.26,-0.62 V 6.28 h -3.24 c -0.24,0 -0.44666,-0.08334 -0.62,-0.25 -0.17334,-0.16666 -0.26,-0.37666 -0.26,-0.63 0,-0.24 0.0867,-0.44666 0.26,-0.62 0.17334,-0.17334 0.38,-0.26 0.62,-0.26 h 8.26 c 0.24,0 0.44666,0.08666 0.62,0.26 0.17334,0.17334 0.26,0.38 0.26,0.62 0,0.25334 -0.0867,0.46334 -0.26,0.63 -0.17334,0.16666 -0.38,0.25 -0.62,0.25 z m 39.54,5.94 c -0.32,0.85334 -0.6333,1.6967 -0.93996,2.53 -0.30666,0.8333 -0.59,1.5933 -0.85,2.28 -0.26,0.6867 -0.47666,1.27 -0.65,1.75 -0.17334,0.48 -0.28668,0.79334 -0.34002,0.94 -0.0667,0.17334 -0.17666,0.31334 -0.33,0.42 -0.15334,0.10666 -0.32334,0.16 -0.51,0.16 -0.18666,0 -0.35666,-0.05334 -0.51,-0.16 -0.15334,-0.10666 -0.26334,-0.24666 -0.33,-0.42 l -4.36,-11.88 -4.38,11.88 c -0.0667,0.17334 -0.17332,0.31334 -0.31998,0.42 -0.14666,0.10666 -0.31332,0.16 -0.49998,0.16 -0.18666,0 -0.35666,-0.05334 -0.51,-0.16 -0.15334,-0.10666 -0.26334,-0.24666 -0.33,-0.42 -0.0533,-0.14666 -0.17,-0.46 -0.35,-0.94 -0.18,-0.48 -0.39666,-1.0633 -0.65,-1.75 -0.25334,-0.6867 -0.53334,-1.4467 -0.84,-2.28 -0.30666,-0.8333 -0.62,-1.6767 -0.94,-2.53 -0.30666,-0.84 -0.61,-1.6633 -0.91,-2.47 -0.3,-0.8067 -0.56666,-1.5333 -0.8,-2.18 -0.23334,-0.6467 -0.42,-1.18 -0.56,-1.6 -0.14,-0.42 -0.21,-0.65666 -0.21,-0.71 0,-0.24 0.0867,-0.44666 0.26,-0.62 0.17334,-0.17334 0.38,-0.26 0.62,-0.26 0.18666,0 0.35666,0.05334 0.51,0.16 0.15334,0.10666 0.26334,0.24666 0.33,0.42 l 4.38,11.88 4.36,-11.88 c 0.0667,-0.17334 0.17666,-0.31334 0.33,-0.42 0.15334,-0.10666 0.32334,-0.16 0.51,-0.16 0.18666,0 0.35332,0.05334 0.49998,0.16 0.14666,0.10666 0.25332,0.24666 0.31998,0.42 l 4.38,11.88 4.36,-11.88 c 0.0667,-0.17334 0.17666,-0.31334 0.33,-0.42 0.15334,-0.10666 0.32334,-0.16 0.51,-0.16 0.24,0 0.44666,0.08666 0.62,0.26 0.17334,0.17334 0.26,0.38 0.26,0.62 0,0.05334 -0.07,0.29 -0.21,0.71 -0.14,0.42 -0.32666,0.95334 -0.56,1.6 -0.23334,0.64666 -0.49668,1.3733 -0.79002,2.18 -0.29334,0.8067 -0.59334,1.63 -0.9,2.47 z m 33.7,8 c -0.10666,0.05334 -0.21992,0.08 -0.33992,0.08 -0.17334,0 -0.33668,-0.04666 -0.49002,-0.14 -0.15334,-0.09334 -0.26334,-0.22668 -0.33,-0.40002 l -1.58,-3.72 h -7.26 l -1.58,3.72 c -0.0933,0.22666 -0.25334,0.38666 -0.48,0.48 -0.22666,0.09334 -0.45332,0.08668 -0.67998,-0.01998 -0.22666,-0.09334 -0.38666,-0.25334 -0.48,-0.48 -0.0933,-0.22666 -0.0867,-0.45332 0.02,-0.67998 l 1.8,-4.26 4.22,-9.88 c 0.0667,-0.17334 0.17332,-0.30668 0.31998,-0.40002 0.14666,-0.09334 0.31332,-0.14 0.49998,-0.14 0.17334,0 0.33334,0.04666 0.48,0.14 0.14666,0.09334 0.25332,0.22668 0.31998,0.40002 1.0133,2.3734 2.02,4.73 3.02,7.07 1,2.34 2.0066,4.6966 3.02,7.07 0.0933,0.22666 0.0933,0.45332 0,0.67998 -0.0933,0.22666 -0.25334,0.38666 -0.48,0.48 z m -6.36,-12.68 -2.88,6.72 h 5.74 z m 32.24,5.82 -0.24,-3.9e-5 0.26,-0.46 3.62,6.06 c 0.08,0.14666 0.12,0.3 0.12,0.46 0,0.24 -0.0867,0.44666 -0.26,0.62 -0.17334,0.17334 -0.38,0.26 -0.62,0.26 -0.16,0 -0.31,-0.04 -0.45,-0.12 -0.14,-0.08 -0.25,-0.18666 -0.33,-0.32 l -3.88,-6.5 h -0.86 v 6.06 c 0,0.24 -0.0867,0.44666 -0.26,0.62 -0.17334,0.17334 -0.38,0.26 -0.62,0.26 -0.25334,0 -0.46668,-0.08666 -0.64002,-0.26 -0.17334,-0.17334 -0.26,-0.38 -0.26,-0.62 V 5.3999609 c 0,-0.24 0.0867,-0.44666 0.26,-0.62 0.17334,-0.17334 0.38668,-0.26 0.64002,-0.26 h 3.52 c 0.61334,0 1.19,0.11666 1.73,0.35 0.54,0.23334 1.01,0.55 1.41,0.95 0.4,0.4 0.71666,0.86666 0.95,1.4 0.23334,0.53334 0.35,1.1067 0.35,1.72 0,0.6133 -0.11666,1.1867001 -0.35,1.7200001 -0.23334,0.5333 -0.55,1 -0.95,1.4 -0.4,0.4 -0.87,0.71666 -1.41,0.95 -0.54,0.23334 -1.1167,0.35 -1.73,0.35 z m 0,-7.08 h -2.64 v 5.3 h 2.64 c 0.36,0 0.70334,-0.07 1.03,-0.21 0.32666,-0.14 0.61,-0.33 0.85,-0.57 0.24,-0.24 0.43,-0.52 0.57,-0.84 0.14,-0.32 0.21,-0.66 0.21,-1.02 0,-0.36 -0.07,-0.70334 -0.21,-1.03 -0.14,-0.32666 -0.33,-0.61 -0.57,-0.85 -0.24,-0.24 -0.52334,-0.43 -0.85,-0.57 -0.32666,-0.14 -0.67,-0.21 -1.03,-0.21 z m 33.14,14.02 -6.88,-2e-5 c -0.25334,0 -0.46668,-0.08666 -0.64002,-0.26 -0.17334,-0.17334 -0.26,-0.38 -0.26,-0.62 v -0.04 -0.04 -13.9399995 c 0,-0.24 0.0867,-0.44666 0.26,-0.62 0.17334,-0.17334 0.38668,-0.26 0.64002,-0.26 h 6.88 c 0.25334,0 0.46668,0.08666 0.64002,0.26 0.17334,0.17334 0.26,0.38 0.26,0.62 0,0.25334 -0.0867,0.46334 -0.26,0.63 -0.17334,0.16666 -0.38668,0.25 -0.64002,0.25 h -6 V 11.37998 h 5.06 c 0.24,0 0.44666,0.08334 0.62,0.25 0.17334,0.16666 0.26,0.37666 0.26,0.63 0,0.24 -0.0867,0.44666 -0.26,0.62 -0.17334,0.17334 -0.38,0.26 -0.62,0.26 h -5.06 v 5.38 h 6 c 0.25334,0 0.46668,0.08666 0.64002,0.26 0.17334,0.17334 0.26,0.38668 0.26,0.64002 0,0.24 -0.0867,0.44666 -0.26,0.62 -0.17334,0.17334 -0.38668,0.26 -0.64002,0.26 z"
         id="path4"
         style="stroke-width:0.483022" />
    </g>
  </g>
</svg>
